<svg width="12" height="8" viewBox="0 0 12 8" fill="none" xmlns="http://www.w3.org/2000/svg">
<path d="M6.00022 7.0829C5.84668 7.08379 5.69447 7.05436 5.55233 6.9963C5.41018 6.93824 5.2809 6.85269 5.17188 6.74456L0.505216 2.0779C0.396438 1.96912 0.310151 1.83998 0.25128 1.69786C0.19241 1.55573 0.162109 1.4034 0.162109 1.24956C0.162109 1.09573 0.19241 0.943399 0.25128 0.801273C0.310151 0.659148 0.396438 0.53001 0.505216 0.421231C0.613995 0.312453 0.743133 0.226165 0.885259 0.167295C1.02738 0.108424 1.17971 0.078125 1.33355 0.078125C1.48739 0.078125 1.63972 0.108424 1.78184 0.167295C1.92397 0.226165 2.0531 0.312453 2.16188 0.421231L6.00022 4.2829L9.85022 0.572898C9.95754 0.45356 10.0883 0.35765 10.2344 0.291166C10.3805 0.224682 10.5387 0.189056 10.6992 0.186513C10.8597 0.183971 11.019 0.214567 11.1671 0.276389C11.3152 0.338212 11.449 0.429932 11.56 0.54581C11.6711 0.661689 11.757 0.799234 11.8125 0.949844C11.8679 1.10045 11.8917 1.26089 11.8824 1.42111C11.873 1.58134 11.8307 1.73791 11.758 1.88103C11.6854 2.02415 11.584 2.15075 11.4602 2.2529L6.79355 6.75623C6.5802 6.96193 6.29655 7.07873 6.00022 7.0829Z" fill="#3B3B3B"/>
</svg>
