<svg width="20" height="17" viewBox="0 0 20 17" fill="none" xmlns="http://www.w3.org/2000/svg">
<path d="M18.9295 8.26894H2.97686V1.60176C2.97686 1.18542 3.31444 0.847991 3.73063 0.847991C4.14697 0.847991 4.4844 1.18542 4.4844 1.60176V1.72793H4.26489C3.64053 1.72793 3.13424 2.23422 3.13424 2.85858C3.13424 3.48295 3.64053 3.98924 4.26489 3.98924H6.62042C7.24478 3.98924 7.75107 3.48295 7.75107 2.85858C7.75107 2.23422 7.24478 1.72793 6.62042 1.72793H5.33239V1.60176C5.33239 0.717112 4.61528 0 3.73063 0C2.84598 0 2.12887 0.717112 2.12887 1.60176V8.26894H1.02751C0.79343 8.26894 0.603516 8.45886 0.603516 8.69294V11.9907C0.605577 13.7852 2.05967 15.2393 3.85415 15.2413H4.23103V15.8649C4.23103 16.0993 4.42094 16.2889 4.65503 16.2889C4.88911 16.2889 5.07902 16.0993 5.07902 15.8649V15.2413H14.9722V15.8649C14.9722 16.0993 15.1622 16.2889 15.3962 16.2889C15.6303 16.2889 15.8202 16.0993 15.8202 15.8649V15.2413H16.1029C17.8974 15.2393 19.3515 13.7852 19.3535 11.9907V8.69294C19.3535 8.45886 19.1636 8.26894 18.9295 8.26894ZM6.90308 2.85858C6.90294 3.01464 6.77647 3.1411 6.62042 3.14125H4.26489C4.10884 3.14125 3.98223 3.01464 3.98223 2.85858C3.98223 2.70253 4.10884 2.57592 4.26489 2.57592H6.62042C6.77647 2.57607 6.90294 2.70253 6.90308 2.85858ZM18.5055 9.11693V10.1174H1.45151V9.11693H18.5055ZM16.1029 14.3933H3.85415C2.52784 14.3919 1.45298 13.317 1.45151 11.9907V10.9654H18.5055V11.9907C18.5041 13.317 17.4292 14.3919 16.1029 14.3933Z" fill="#4BADDB"/>
</svg>
