<svg width="20" height="14" viewBox="0 0 20 14" fill="none" xmlns="http://www.w3.org/2000/svg">
<path d="M1.05406 13.5593C1.29418 13.5593 1.48899 13.3645 1.48899 13.1244V11.143H18.4993V13.1244C18.4993 13.3645 18.6941 13.5593 18.9342 13.5593C19.1743 13.5593 19.3691 13.3645 19.3691 13.1244V3.94266C19.3691 3.70254 19.1743 3.50773 18.9342 3.50773C18.6941 3.50773 18.4993 3.70254 18.4993 3.94266V5.92397H1.48899V0.559923C1.48899 0.319809 1.29418 0.125 1.05406 0.125C0.81395 0.125 0.619141 0.319809 0.619141 0.559923V13.1244C0.619141 13.3645 0.81395 13.5593 1.05406 13.5593ZM1.48899 10.2732V9.6933H18.4993V10.2732H1.48899ZM18.4993 6.79382V8.82346H1.48899V6.79382H18.4993Z" fill="#4BADDB"/>
</svg>
