<svg width="28" height="28" viewBox="0 0 28 28" fill="none" xmlns="http://www.w3.org/2000/svg">
<path d="M1.75 5.25H26.25V22.75H1.75V5.25Z" fill="#2A2FAF"/>
<path fill-rule="evenodd" clip-rule="evenodd" d="M1.89195 5.25L26.25 22.2055V22.75H25.4459L1.75 6.25538V5.25H1.89195Z" fill="#E92B2B"/>
<path fill-rule="evenodd" clip-rule="evenodd" d="M24.6527 22.75L1.75 6.8075V6.25538L25.4459 22.75H24.6527ZM2.68511 5.25L26.25 21.6534V22.2055L1.89195 5.25H2.68511Z" fill="#FBFBFB"/>
<path fill-rule="evenodd" clip-rule="evenodd" d="M1.75 22.2055V22.75H2.55408L26.25 6.25538V5.25H26.108L1.75 22.2055Z" fill="#E92B2B"/>
<path fill-rule="evenodd" clip-rule="evenodd" d="M26.25 6.8075V6.25538L2.55408 22.75H3.34724L26.25 6.8075ZM1.75 21.6534V22.2055L26.108 5.25H25.3149L1.75 21.6534Z" fill="#FBFBFB"/>
<path fill-rule="evenodd" clip-rule="evenodd" d="M3.12463 5.25L26.25 21.3408V22.4448L1.75 5.39758V5.25H3.12463Z" fill="#FBFBFB"/>
<path fill-rule="evenodd" clip-rule="evenodd" d="M1.75 21.3408V22.4448L26.25 5.39758V5.25H24.8754L1.75 21.3408Z" fill="#FBFBFB"/>
<path fill-rule="evenodd" clip-rule="evenodd" d="M15.3125 5.25H12.6875V12.6184H1.75V15.3816H12.6875V22.75H15.3125V15.3816H26.25V12.6184H15.3125V5.25Z" fill="#E92B2B"/>
<path fill-rule="evenodd" clip-rule="evenodd" d="M1.75 12.1579H12.25V5.25H13.125V12.6184V13.079H12.6875H1.75V12.1579ZM12.25 22.75V15.8421H1.75V14.921H12.6875H13.125V15.3816V22.75H12.25ZM26.25 15.8421H15.75V22.75H14.875V15.3816V14.921H15.3125H26.25V15.8421ZM15.75 5.25V12.1579H26.25V13.079H15.3125H14.875V12.6184V5.25H15.75Z" fill="#FBFBFB"/>
</svg>
