<svg width="20" height="20" viewBox="0 0 20 20" fill="none" xmlns="http://www.w3.org/2000/svg">
<path d="M2.49997 3.12507V0.625006C2.49997 0.279507 2.77948 0 3.12506 0C3.47048 0 3.74998 0.279507 3.74998 0.625006V3.12507C3.74998 3.47049 3.47048 3.74999 3.12506 3.74999C2.77948 3.75004 2.49997 3.47049 2.49997 3.12507ZM13.1251 3.75004C13.4704 3.75004 13.7501 3.47053 13.7501 3.12511V0.625006C13.7501 0.279507 13.4704 0 13.1251 0C12.7796 0 12.4999 0.279507 12.4999 0.625006V3.12507C12.4999 3.47049 12.7796 3.75004 13.1251 3.75004ZM19.9999 14.9999C19.9999 17.7614 17.7612 20.0001 14.9999 20.0001C12.2388 20.0001 9.99998 17.7614 9.99998 14.9999C9.99998 12.2388 12.2388 10 14.9999 10C17.7612 10 19.9999 12.2387 19.9999 14.9999ZM18.7501 14.9999C18.7501 12.9323 17.0679 11.2499 15 11.2499C12.9322 11.2499 11.25 12.9323 11.25 14.9999C11.25 17.0679 12.9322 18.75 15 18.75C17.0679 18.75 18.7501 17.0679 18.7501 14.9999ZM5.00003 7.50003H2.49997V10H5.00003V7.50003ZM2.49997 13.75H5.00003V11.2499H2.49997V13.75ZM6.24995 10H8.75005V7.50003H6.24995V10ZM6.24995 13.75H8.75005V11.2499H6.24995V13.75ZM1.25005 14.8756V5H15V8.75004H16.25V3.8746C16.25 3.1153 15.6444 2.49998 14.8963 2.49998H14.375V3.12511C14.375 3.81351 13.8145 4.37508 13.1251 4.37508C12.4355 4.37508 12.0833 3.75 12.0833 3.33333H4.16667C4.16667 3.75 3.81465 4.37508 3.1251 4.37508C2.43538 4.37508 1.87505 3.81351 1.87505 3.12511V2.49998H1.35437C0.606167 2.49998 0 3.1153 0 3.8746V14.8757C0 15.6324 0.606167 16.2502 1.35437 16.2502H8.75005V14.9999H1.35437C1.29774 14.9999 1.25005 14.9414 1.25005 14.8756ZM12.4999 10V7.50003H10V10H12.4999ZM16.875 14.9999H14.9999V13.1248C14.9999 12.7795 14.7204 12.5 14.3749 12.5C14.0294 12.5 13.7501 12.7795 13.7501 13.1248V15.6251C13.7501 15.9704 14.0294 16.2501 14.3749 16.2501H16.875C17.2205 16.2501 17.5 15.9704 17.5 15.6251C17.5 15.2796 17.2205 14.9999 16.875 14.9999Z" fill="#3B3B3B"/>
</svg>
