<svg width="18" height="19" viewBox="0 0 18 19" fill="none" xmlns="http://www.w3.org/2000/svg">
<path d="M3.82136 17.11H14.1621C14.3537 17.11 14.5089 16.9548 14.5089 16.7632V8.98553C14.5089 8.79385 14.3537 8.63878 14.1621 8.63878H10.6513V5.09667C10.6513 4.90523 10.4961 4.74992 10.3046 4.74992H9.51679V3.79119C9.51679 3.59976 9.36148 3.44444 9.17004 3.44444H7.37358V2.12018C7.37358 1.92875 7.21827 1.77344 7.02684 1.77344C6.8354 1.77344 6.68009 1.92875 6.68009 2.12018V3.44444H4.95587C4.76443 3.44444 4.60912 3.59976 4.60912 3.79119V4.74992H3.82136C3.6298 4.74992 3.47461 4.90523 3.47461 5.09667V16.7632C3.47461 16.9548 3.6298 17.11 3.82136 17.11ZM13.8154 9.33227V16.4165H10.6513V9.33227H13.8154ZM8.0129 16.4165H7.37358V14.5282H8.0129V16.4165ZM6.68009 16.4165H6.11301V14.5282H6.68009V16.4165ZM5.30261 4.13794H8.8233V4.74992H5.30261V4.13794ZM4.1681 5.44341H9.95781V16.4165H8.70639V14.1814C8.70639 13.99 8.55108 13.8347 8.35964 13.8347H5.76627C5.57483 13.8347 5.41952 13.99 5.41952 14.1814V16.4165H4.1681V5.44341Z" fill="#4BADDB"/>
<path d="M5.13972 8.78724H8.99245C9.18389 8.78724 9.3392 8.63193 9.3392 8.4405C9.3392 8.24906 9.18389 8.09375 8.99245 8.09375H5.13972C4.94828 8.09375 4.79297 8.24906 4.79297 8.4405C4.79297 8.63193 4.94828 8.78724 5.13972 8.78724Z" fill="#4BADDB"/>
<path d="M5.13972 10.5529H8.99245C9.18389 10.5529 9.3392 10.3976 9.3392 10.2061C9.3392 10.0147 9.18389 9.85938 8.99245 9.85938H5.13972C4.94828 9.85938 4.79297 10.0147 4.79297 10.2061C4.79297 10.3976 4.94828 10.5529 5.13972 10.5529Z" fill="#4BADDB"/>
<path d="M8.99245 12.3341C9.18389 12.3341 9.3392 12.1788 9.3392 11.9874C9.3392 11.7959 9.18389 11.6406 8.99245 11.6406H5.13972C4.94828 11.6406 4.79297 11.7959 4.79297 11.9874C4.79297 12.1788 4.94828 12.3341 5.13972 12.3341H8.99245Z" fill="#4BADDB"/>
<path d="M5.13972 7.01379H8.99245C9.18389 7.01379 9.3392 6.85848 9.3392 6.66705C9.3392 6.47562 9.18389 6.32031 8.99245 6.32031H5.13972C4.94828 6.32031 4.79297 6.47562 4.79297 6.66705C4.79297 6.85848 4.94828 7.01379 5.13972 7.01379Z" fill="#4BADDB"/>
<path d="M11.3799 12.295H13.0366C13.2281 12.295 13.3834 12.1397 13.3834 11.9483C13.3834 11.7569 13.2281 11.6016 13.0366 11.6016H11.3799C11.1885 11.6016 11.0332 11.7569 11.0332 11.9483C11.0332 12.1397 11.1885 12.295 11.3799 12.295Z" fill="#4BADDB"/>
<path d="M11.3799 13.756H13.0366C13.2281 13.756 13.3834 13.6007 13.3834 13.4092C13.3834 13.2178 13.2281 13.0625 13.0366 13.0625H11.3799C11.1885 13.0625 11.0332 13.2178 11.0332 13.4092C11.0332 13.6007 11.1885 13.756 11.3799 13.756Z" fill="#4BADDB"/>
<path d="M13.0366 14.6406H11.3799C11.1885 14.6406 11.0332 14.7959 11.0332 14.9874C11.0332 15.1788 11.1885 15.3341 11.3799 15.3341H13.0366C13.2281 15.3341 13.3834 15.1788 13.3834 14.9874C13.3834 14.7959 13.2281 14.6406 13.0366 14.6406Z" fill="#4BADDB"/>
<path d="M11.3799 10.7091H13.0366C13.2281 10.7091 13.3834 10.5538 13.3834 10.3624C13.3834 10.1709 13.2281 10.0156 13.0366 10.0156H11.3799C11.1885 10.0156 11.0332 10.1709 11.0332 10.3624C11.0332 10.5538 11.1885 10.7091 11.3799 10.7091Z" fill="#4BADDB"/>
</svg>
