<svg width="16" height="14" viewBox="0 0 16 14" fill="none" xmlns="http://www.w3.org/2000/svg">
<path d="M14.1404 7.91977C14.0839 7.79907 13.9628 7.72175 13.8294 7.72175H12.4148C12.7132 7.34249 12.9519 6.91987 13.1219 6.46829C13.3494 5.86527 13.4454 5.22044 13.4036 4.57727C13.3236 3.40138 12.8162 2.29567 11.9769 1.46829C10.1503 -0.322765 7.2264 -0.322765 5.39984 1.46829C4.56079 2.29567 4.05321 3.40138 3.97326 4.57727C3.93132 5.22044 4.02747 5.86527 4.25481 6.46829C4.42508 6.91987 4.6635 7.34249 4.96197 7.72175H3.40909C3.27564 7.72175 3.15435 7.79907 3.09811 7.91977L0.682709 13.0955C0.633024 13.2019 0.641007 13.3261 0.704037 13.4251C0.767067 13.524 0.876327 13.584 0.99357 13.5839H16.2447C16.3621 13.5839 16.4712 13.524 16.5342 13.4251C16.5973 13.3262 16.6053 13.202 16.5557 13.0956L14.1404 7.91977ZM4.65778 4.62385C4.72653 3.61525 5.1619 2.6667 5.8818 1.95681C7.44111 0.429427 9.9355 0.429427 11.4947 1.95681C12.2146 2.6667 12.65 3.61525 12.7188 4.62385C12.754 5.17016 12.6719 5.71765 12.4784 6.22963C12.2882 6.74246 11.9759 7.22859 11.5502 7.6748L8.68825 10.6733L5.82628 7.67468C5.40044 7.22847 5.08826 6.74234 4.8981 6.22952C4.70448 5.71765 4.62263 5.17016 4.65778 4.62385ZM1.53248 12.8976L3.62749 8.40805H5.57761L8.43994 11.4073C8.50476 11.4751 8.59448 11.5136 8.68825 11.5136C8.7819 11.5136 8.87174 11.4751 8.93644 11.4073L11.7988 8.40805H13.6109L15.706 12.8976H1.53248Z" fill="#4BADDB"/>
</svg>
