<svg width="26" height="16" viewBox="0 0 26 16" fill="none" xmlns="http://www.w3.org/2000/svg">
<path d="M25.4583 4.29242H23.8333V2.68276C23.8333 2.54046 23.7763 2.40399 23.6747 2.30336C23.5731 2.20274 23.4353 2.14621 23.2917 2.14621H21.6667V0.536553C21.6667 0.39425 21.6096 0.257776 21.508 0.157153C21.4064 0.0565295 21.2687 0 21.125 0L0.541667 0C0.398008 0 0.260233 0.0565295 0.158651 0.157153C0.0570683 0.257776 0 0.39425 0 0.536553L0 11.171C0 11.3133 0.0570683 11.4498 0.158651 11.5504C0.260233 11.651 0.398008 11.7076 0.541667 11.7076H2.16667V13.3172C2.16667 13.4595 2.22374 13.596 2.32532 13.6966C2.4269 13.7973 2.56467 13.8538 2.70833 13.8538H4.33333V15.4634C4.33333 15.6058 4.3904 15.7422 4.49198 15.8428C4.59357 15.9435 4.73134 16 4.875 16H25.4583C25.602 16 25.7398 15.9435 25.8414 15.8428C25.9429 15.7422 26 15.6058 26 15.4634V4.82897C26 4.68667 25.9429 4.5502 25.8414 4.44957C25.7398 4.34895 25.602 4.29242 25.4583 4.29242ZM17.1167 10.6345H4.55C4.4303 9.76552 4.02655 8.95932 3.4005 8.33919C2.77445 7.71905 1.96057 7.31911 1.08333 7.20054V4.50704C1.96057 4.38847 2.77445 3.98853 3.4005 3.36839C4.02655 2.74826 4.4303 1.94206 4.55 1.07311H17.1167C17.2364 1.94206 17.6401 2.74826 18.2662 3.36839C18.8922 3.98853 19.7061 4.38847 20.5833 4.50704V7.20054C19.7061 7.31911 18.8922 7.71905 18.2662 8.33919C17.6401 8.95932 17.2364 9.76552 17.1167 10.6345ZM20.5833 8.27364V10.6345H18.1892C18.3014 10.0477 18.5902 9.50834 19.0174 9.08704C19.4447 8.66573 19.9905 8.3822 20.5833 8.27364ZM20.5833 1.07311V3.44467C19.989 3.33541 19.4421 3.05029 19.0147 2.62692C18.5873 2.20354 18.2995 1.66179 18.1892 1.07311H20.5833ZM1.08333 1.07311H3.4775C3.3672 1.66179 3.07936 2.20354 2.65196 2.62692C2.22455 3.05029 1.67763 3.33541 1.08333 3.44467V1.07311ZM1.08333 8.27364C1.67616 8.3822 2.222 8.66573 2.64926 9.08704C3.07652 9.50834 3.36522 10.0477 3.4775 10.6345H1.08333V8.27364ZM3.25 11.7183H21.125C21.2687 11.7183 21.4064 11.6618 21.508 11.5612C21.6096 11.4605 21.6667 11.3241 21.6667 11.1818V3.21932H22.75V12.7807H3.25V11.7183ZM24.9167 14.9376H5.41667V13.8645H23.2917C23.4353 13.8645 23.5731 13.808 23.6747 13.7074C23.7763 13.6067 23.8333 13.4703 23.8333 13.328V5.36553H24.9167V14.9376Z" fill="#4C5159"/>
<path d="M10.5 2C9.80777 2 9.13108 2.20527 8.55551 2.58986C7.97993 2.97444 7.53133 3.52107 7.26642 4.16061C7.00152 4.80015 6.9322 5.50388 7.06725 6.18282C7.2023 6.86175 7.53564 7.48539 8.02513 7.97487C8.51461 8.46436 9.13825 8.7977 9.81719 8.93275C10.4961 9.0678 11.1999 8.99848 11.8394 8.73358C12.4789 8.46867 13.0256 8.02007 13.4101 7.44449C13.7947 6.86892 14 6.19223 14 5.5C13.9973 4.57258 13.6277 3.68392 12.9719 3.02814C12.3161 2.37235 11.4274 2.00272 10.5 2ZM10.5 7.96755C10.012 7.96755 9.53489 7.82283 9.1291 7.55169C8.72332 7.28056 8.40704 6.89518 8.22028 6.44429C8.03352 5.9934 7.98465 5.49726 8.07986 5.0186C8.17507 4.53995 8.41009 4.10027 8.75518 3.75518C9.10027 3.41008 9.53995 3.17507 10.0186 3.07986C10.4973 2.98465 10.9934 3.03352 11.4443 3.22028C11.8952 3.40704 12.2806 3.72331 12.5517 4.1291C12.8228 4.53489 12.9676 5.01196 12.9676 5.5C12.9689 5.82491 12.9061 6.14689 12.7827 6.44746C12.6593 6.74803 12.4778 7.02127 12.2485 7.2515C12.0192 7.48173 11.7467 7.66441 11.4467 7.78906C11.1466 7.91371 10.8249 7.97788 10.5 7.97787V7.96755Z" fill="#4C5159"/>
</svg>
