<svg width="28" height="28" viewBox="0 0 28 28" fill="none" xmlns="http://www.w3.org/2000/svg">
<path d="M13.9987 14.1068C14.9217 14.1068 15.8239 13.8331 16.5914 13.3203C17.3588 12.8075 17.9569 12.0787 18.3101 11.226C18.6633 10.3732 18.7558 9.43493 18.5757 8.52969C18.3956 7.62444 17.9512 6.79292 17.2985 6.14027C16.6459 5.48763 15.8144 5.04317 14.9091 4.86311C14.0039 4.68304 13.0656 4.77546 12.2128 5.12867C11.3601 5.48188 10.6313 6.08002 10.1185 6.84745C9.60573 7.61487 9.33203 8.51713 9.33203 9.44011C9.33203 10.6778 9.8237 11.8648 10.6989 12.7399C11.574 13.6151 12.761 14.1068 13.9987 14.1068ZM13.9987 7.10677C14.4602 7.10677 14.9113 7.24362 15.295 7.50001C15.6787 7.7564 15.9778 8.12082 16.1544 8.54718C16.331 8.97354 16.3772 9.4427 16.2872 9.89532C16.1972 10.3479 15.9749 10.7637 15.6486 11.09C15.3223 11.4163 14.9065 11.6386 14.4539 11.7286C14.0013 11.8186 13.5321 11.7724 13.1058 11.5958C12.6794 11.4192 12.315 11.1202 12.0586 10.7364C11.8022 10.3527 11.6654 9.9016 11.6654 9.44011C11.6654 8.82127 11.9112 8.22778 12.3488 7.79019C12.7864 7.35261 13.3799 7.10677 13.9987 7.10677Z" fill="#3B3B3B"/>
<path d="M13.9987 15.1641C11.8328 15.1641 9.75554 16.0245 8.22399 17.556C6.69245 19.0876 5.83203 21.1648 5.83203 23.3307C5.83203 23.6401 5.95495 23.9369 6.17374 24.1557C6.39253 24.3745 6.68928 24.4974 6.9987 24.4974C7.30812 24.4974 7.60486 24.3745 7.82366 24.1557C8.04245 23.9369 8.16536 23.6401 8.16536 23.3307C8.16536 21.7836 8.77995 20.2999 9.87391 19.2059C10.9679 18.112 12.4516 17.4974 13.9987 17.4974C15.5458 17.4974 17.0295 18.112 18.1235 19.2059C19.2175 20.2999 19.832 21.7836 19.832 23.3307C19.832 23.6401 19.9549 23.9369 20.1737 24.1557C20.3925 24.3745 20.6893 24.4974 20.9987 24.4974C21.3081 24.4974 21.6049 24.3745 21.8237 24.1557C22.0425 23.9369 22.1654 23.6401 22.1654 23.3307C22.1654 21.1648 21.305 19.0876 19.7734 17.556C18.2419 16.0245 16.1646 15.1641 13.9987 15.1641Z" fill="#3B3B3B"/>
<circle cx="14" cy="14" r="13" stroke="#3B3B3B" stroke-width="2"/>
</svg>
