<svg width="26" height="26" viewBox="0 0 26 26" fill="none" xmlns="http://www.w3.org/2000/svg">
<path d="M14.0833 8.66667C14.9453 8.66667 15.7719 9.00908 16.3814 9.61857C16.9909 10.2281 17.3333 11.0547 17.3333 11.9167C17.3333 12.204 17.4475 12.4795 17.6506 12.6827C17.8538 12.8859 18.1293 13 18.4167 13C18.704 13 18.9795 12.8859 19.1827 12.6827C19.3859 12.4795 19.5 12.204 19.5 11.9167C19.5 10.4801 18.9293 9.10233 17.9135 8.0865C16.8977 7.07068 15.5199 6.5 14.0833 6.5C13.796 6.5 13.5205 6.61414 13.3173 6.8173C13.1141 7.02047 13 7.29602 13 7.58333C13 7.87065 13.1141 8.1462 13.3173 8.34937C13.5205 8.55253 13.796 8.66667 14.0833 8.66667Z" fill="#3B3B3B"/>
<path d="M14.0833 4.33073C16.0946 4.33073 18.0234 5.12968 19.4456 6.55184C20.8677 7.97399 21.6667 9.90284 21.6667 11.9141C21.6667 12.2014 21.7808 12.4769 21.984 12.6801C22.1871 12.8833 22.4627 12.9974 22.75 12.9974C23.0373 12.9974 23.3129 12.8833 23.516 12.6801C23.7192 12.4769 23.8333 12.2014 23.8333 11.9141C23.8333 9.3282 22.8061 6.84825 20.9776 5.01977C19.1491 3.19129 16.6692 2.16406 14.0833 2.16406C13.796 2.16406 13.5205 2.2782 13.3173 2.48136C13.1141 2.68453 13 2.96008 13 3.2474C13 3.53471 13.1141 3.81026 13.3173 4.01343C13.5205 4.21659 13.796 4.33073 14.0833 4.33073Z" fill="#3B3B3B"/>
<path d="M23.5638 17.2332C23.5042 17.0593 23.4014 16.9034 23.2649 16.7802C23.1284 16.6571 22.9629 16.5706 22.7838 16.5291L16.2838 15.0449C16.1074 15.0049 15.9237 15.0097 15.7496 15.0589C15.5755 15.1081 15.4165 15.2001 15.2871 15.3266C15.1355 15.4674 15.1246 15.4782 14.4205 16.8216C12.0839 15.7449 10.2117 13.865 9.14464 11.5241C10.5205 10.8307 10.5313 10.8307 10.6721 10.6682C10.7986 10.5388 10.8906 10.3798 10.9398 10.2057C10.989 10.0316 10.9938 9.848 10.9538 9.67156L9.46964 3.2474C9.42809 3.06832 9.34165 2.90276 9.21846 2.7663C9.09527 2.62984 8.93938 2.52698 8.76547 2.4674C8.51247 2.37703 8.25122 2.31172 7.98547 2.2724C7.71166 2.20891 7.43225 2.17262 7.1513 2.16406C5.82964 2.16406 4.56211 2.68909 3.62755 3.62365C2.693 4.5582 2.16797 5.82573 2.16797 7.1474C2.1737 11.5703 3.93325 15.8105 7.06074 18.938C10.1882 22.0655 14.4284 23.825 18.8513 23.8307C19.5057 23.8307 20.1537 23.7018 20.7583 23.4514C21.3629 23.201 21.9123 22.8339 22.3751 22.3711C22.8378 21.9084 23.2049 21.359 23.4553 20.7544C23.7057 20.1498 23.8346 19.5018 23.8346 18.8474C23.835 18.5717 23.8132 18.2963 23.7696 18.0241C23.7241 17.755 23.6552 17.4904 23.5638 17.2332ZM18.8513 21.6641C15.0021 21.6612 11.3114 20.1308 8.58964 17.4091C5.86786 14.6873 4.3375 10.9966 4.33464 7.1474C4.33749 6.40125 4.63516 5.68647 5.16277 5.15886C5.69038 4.63125 6.40515 4.33358 7.1513 4.33073H7.5088L8.66797 9.3574L8.08297 9.66073C7.1513 10.1482 6.41464 10.5382 6.80464 11.3832C7.43971 13.1811 8.46731 14.8149 9.81277 16.166C11.1582 17.5171 12.7878 18.5515 14.583 19.1941C15.493 19.5624 15.8505 18.8799 16.338 17.9374L16.6521 17.3416L21.668 18.4899V18.8474C21.6651 19.5935 21.3674 20.3083 20.8398 20.8359C20.3122 21.3635 19.5975 21.6612 18.8513 21.6641Z" fill="#3B3B3B"/>
</svg>
