<svg width="150" height="150" viewBox="0 0 150 150" fill="none" xmlns="http://www.w3.org/2000/svg">
<circle cx="75" cy="75" r="75" fill="#08293A" fill-opacity="0.13"/>
<g filter="url(#filter0_d_396_324)">
<circle cx="75.5" cy="74.5" r="59.5" stroke="#3BA8DC" stroke-width="2" shape-rendering="crispEdges"/>
</g>
<path fill-rule="evenodd" clip-rule="evenodd" d="M63 63H67.8V64.6H70.2V63H75V67H70.2V65.4H67.8V67H63V63ZM63.8 63.8H67V66.2H63.8V63.8ZM74.2 63.8H71V66.2H74.2V63.8Z" fill="white"/>
<path fill-rule="evenodd" clip-rule="evenodd" d="M89.6928 82L82 89.8749L83.085 90.9856L84.5379 89.4983V98H96.0157V90.065L96.915 90.9856L98 89.8749L95.4627 87.2775V83.079H93.9282V85.854L89.6928 82ZM85.5009 88.5125L89.7548 84.158L94.1689 88.1745L94.4991 88.5125H85.5009ZM86.0723 90.0833V96.4293H94.4813V90.0833H92.1488V94.0416H87.2999V90.0833H86.0723ZM88.8343 90.0833V92.4709H90.6143V90.0833H88.8343Z" fill="white"/>
<path fill-rule="evenodd" clip-rule="evenodd" d="M76.2995 47.0836L76.864 46.5454L75.4094 45L75.5229 47.1256L75.5231 47.1283L75.5238 47.147C75.5245 47.1645 75.5254 47.192 75.5262 47.2281C75.5276 47.3005 75.5286 47.4069 75.5259 47.5373C75.5204 47.8003 75.5004 48.1499 75.4444 48.5091C75.3875 48.8745 75.2988 49.2132 75.1736 49.4737C75.0472 49.737 74.921 49.8454 74.8266 49.8862C74.6702 49.9537 74.3547 49.9753 73.9717 49.9392C73.8003 49.923 73.6459 49.8986 73.5343 49.878L73.5295 49.8771C73.4516 49.815 73.3459 49.7318 73.2171 49.6331C72.9294 49.4127 72.5241 49.1128 72.0521 48.7944C71.1288 48.1715 69.874 47.4245 68.7262 47.111C66.6324 46.5389 64.9899 46.2182 62.7799 47.1437C61.4147 47.7154 60.3959 48.509 59.6314 49.5412C58.8747 50.5628 58.3963 51.7785 58.0478 53.1511C57.8583 53.8975 57.8965 54.7822 58.0191 55.6269C58.1439 56.4871 58.3682 57.3817 58.6067 58.1824C58.8458 58.9857 59.1037 59.7099 59.3015 60.2325L59.3336 60.3169C59.3125 60.3526 59.2922 60.3898 59.2729 60.4287C59.1639 60.6479 59.1081 60.9364 59.072 61.1715C59.0309 61.4374 58.9986 61.7571 58.9734 62.1046C58.923 62.8015 58.8983 63.653 58.8984 64.4974C58.8984 65.3418 58.9231 66.1932 58.9735 66.8899C58.9987 67.2372 59.031 67.5568 59.072 67.8225C59.1082 68.0572 59.164 68.346 59.2733 68.5652C59.465 68.95 59.7787 69.1967 60.0643 69.3534C60.3511 69.5107 60.658 69.6045 60.9176 69.6626C61.0757 69.698 61.2267 69.7225 61.3601 69.7395C61.4267 69.9089 61.5111 70.1166 61.6127 70.353C61.8921 71.0034 62.3046 71.8797 62.8349 72.7736C63.022 73.0887 63.2257 73.4095 63.4457 73.7256L62.7741 77.1044L61.1093 78.5007C60.8157 78.5552 60.4132 78.6303 59.933 78.7212C58.8982 78.9173 57.5013 79.1871 56.0548 79.4814C54.6097 79.7756 53.1093 80.0956 51.8695 80.392C51.2501 80.5402 50.6892 80.684 50.2296 80.8172C49.7871 80.9455 49.3865 81.0783 49.1214 81.2116C48.738 81.4045 48.5662 81.794 48.485 82.0108C48.3848 82.2784 48.3117 82.6033 48.255 82.9514C48.1406 83.6536 48.0724 84.5824 48.0356 85.6386C47.9617 87.7583 48.0111 90.4956 48.1085 93.1908C48.2061 95.89 48.3523 98.5628 48.4741 100.56C48.535 101.559 48.5898 102.389 48.6294 102.97C48.6492 103.261 48.6653 103.489 48.6763 103.644L48.6891 103.822L48.6935 103.884C48.6935 103.884 48.6936 103.884 49.4691 103.826L48.6935 103.884L48.7469 104.609H78.7498C79.2626 104.859 79.8384 105 80.4468 105H99.1115C101.259 105 103 103.248 103 101.087V78.3898C103 76.2286 101.259 74.4765 99.1115 74.4765H80.4468C78.4108 74.4765 76.7403 76.0512 76.5722 78.0564L74.9705 76.7131L74.502 74.3557C74.9875 73.9196 75.4101 73.4389 75.7841 72.9132C76.6891 71.641 77.2863 70.1357 77.8187 68.4516C78.3271 66.8438 78.3148 64.7594 78.1986 63.152C78.1395 62.3334 78.0509 61.6096 77.977 61.0902C77.9401 60.8302 77.9067 60.6205 77.8824 60.4748C77.8702 60.402 77.8603 60.3451 77.8533 60.3059L77.8452 60.2604L77.8448 60.2581C77.9283 60.1356 78.0461 59.9597 78.1862 59.7413C78.4667 59.3039 78.8395 58.6918 79.2065 57.9947C79.5722 57.2999 79.94 56.5063 80.2032 55.7076C80.4631 54.9192 80.641 54.0682 80.574 53.2783C80.4366 51.6585 79.4519 49.9462 78.5976 48.7173C78.1581 48.0851 77.7275 47.5454 77.4069 47.1636C77.2464 46.9724 77.1126 46.8199 77.0181 46.7143C76.9708 46.6615 76.9333 46.6203 76.9071 46.5918L76.8766 46.5587L76.868 46.5495L76.8654 46.5468L76.864 46.5454C76.864 46.5452 76.864 46.5454 76.2995 47.0836ZM76.5583 82.5419L74.2501 90.8379L70.0778 84.3485V103.043H77.0785C76.7477 102.468 76.5583 101.799 76.5583 101.087V82.5419ZM68.5224 103.043V83.7438L63.9611 90.8379L60.9783 80.1169C60.7569 80.1583 60.5023 80.2062 60.2208 80.2595C59.1901 80.4548 57.8005 80.7231 56.3632 81.0157C54.9245 81.3085 53.4439 81.6245 52.2291 81.9149C51.6213 82.0603 51.0866 82.1978 50.6601 82.3214C50.3307 82.4168 50.0937 82.4964 49.9429 82.5565L49.9405 82.5628C49.8926 82.6907 49.8395 82.9001 49.7899 83.2047C49.6916 83.8079 49.6261 84.6584 49.59 85.6934C49.5181 87.756 49.5659 90.4484 49.6629 93.1339C49.7598 95.8155 49.9053 98.4744 50.0266 100.464C50.0872 101.459 50.1418 102.285 50.1812 102.863L50.1935 103.043H68.5224ZM60.8835 59.4799C60.8247 59.4858 60.7597 59.4928 60.6903 59.5026C60.5124 59.0236 60.2969 58.4061 60.0966 57.7331C59.8704 56.9735 59.6681 56.1584 59.5581 55.4007C59.4459 54.6275 59.4412 53.9859 59.5548 53.5386C59.8757 52.275 60.2878 51.2741 60.8784 50.4767C61.4611 49.6901 62.2464 49.0625 63.3775 48.5889C65.093 47.8704 66.3092 48.0726 68.3188 48.6216C69.207 48.8643 70.2852 49.4869 71.1861 50.0946C71.6262 50.3915 72.0056 50.6722 72.2748 50.8784C72.4091 50.9814 72.5154 51.0654 72.5875 51.1231C72.6235 51.1519 72.6509 51.1741 72.6688 51.1888L72.6887 51.2051L72.6939 51.2094L72.8325 51.3244L73.0072 51.3666L73.1887 50.6056C73.0072 51.3666 73.0071 51.3666 73.0072 51.3666L73.0085 51.3669L73.0102 51.3673L73.0151 51.3685L73.0302 51.372C73.0426 51.3748 73.0595 51.3786 73.0807 51.3832C73.1229 51.3923 73.182 51.4044 73.2544 51.4178C73.3983 51.4443 73.599 51.4762 73.8265 51.4977C74.2411 51.5368 74.8979 51.5585 75.4393 51.3249C76.0069 51.0801 76.3576 50.6055 76.574 50.1549C76.7421 49.805 76.852 49.4236 76.9252 49.0638C77.0549 49.2369 77.1887 49.4212 77.3232 49.6147C78.1594 50.8176 78.9245 52.2359 79.0242 53.4114C79.0655 53.8978 78.9572 54.5164 78.727 55.2147C78.5002 55.9026 78.1738 56.6127 77.832 57.2619C77.4914 57.9089 77.1431 58.4813 76.8794 58.8925C76.7479 59.0976 76.638 59.2614 76.5618 59.3731C76.5237 59.4289 76.4941 59.4716 76.4743 59.4998L76.4523 59.5311L76.4472 59.5382L76.4462 59.5396C76.4463 59.5396 76.4462 59.5396 76.5344 59.6036C76.2797 59.5999 75.951 59.5915 75.5857 59.5731C74.7285 59.53 73.7275 59.4348 73.0004 59.24C72.4255 59.0861 71.9375 58.7578 71.4671 58.3088C71.0946 57.9534 70.7684 57.5598 70.4186 57.1379C70.3112 57.0084 70.2016 56.8762 70.0878 56.7416C69.6315 56.202 69.1013 55.6181 68.446 55.2397C67.7491 54.8372 66.9403 54.6823 65.991 54.9351C64.5396 55.3217 63.9364 56.4444 63.4899 57.3156L63.4413 57.4106C62.9888 58.2948 62.663 58.9315 61.9476 59.2994C61.7433 59.4045 61.5332 59.4226 61.1863 59.4523C61.0955 59.4601 60.9954 59.4687 60.8835 59.4799ZM64.4408 76.6993L64.7259 75.2651C64.7529 75.2916 64.78 75.3178 64.8073 75.3438C65.5875 76.0868 66.5448 76.6955 67.6605 76.8188C69.4027 77.0112 70.4844 76.6185 71.9455 75.9751C72.3654 75.7903 72.7552 75.5894 73.1179 75.3723L73.4508 77.0478L69.1057 81.7851L64.4408 76.6993ZM49.9806 82.4746C49.9807 82.4749 49.9785 82.4791 49.9735 82.4862C49.978 82.4777 49.9805 82.4742 49.9806 82.4746ZM62.4078 79.4493L64.5289 87.0733L67.5416 82.3876L63.7861 78.2933L62.4078 79.4493ZM73.6823 87.0733L75.8036 79.4493L74.4251 78.2933L70.6696 82.3876L73.6823 87.0733ZM62.6473 68.7401L62.648 68.7422L62.652 68.7537C62.6558 68.7645 62.6618 68.7813 62.6699 68.8038C62.6862 68.8486 62.7111 68.9161 62.7442 69.003C62.8105 69.177 62.91 69.4283 63.0405 69.732C63.3022 70.3413 63.6847 71.1527 64.1703 71.971C64.6586 72.7936 65.2349 73.5959 65.8764 74.2068C66.5215 74.8212 67.1774 75.1907 67.8302 75.2628C69.1667 75.4104 69.9457 75.1471 71.3221 74.5411C72.7842 73.8973 73.7704 73.055 74.5194 72.0021C75.2807 70.9318 75.8191 69.6136 76.3366 67.9769C76.7491 66.6721 76.7614 64.8432 76.6474 63.2655C76.5914 62.4915 76.5074 61.8048 76.4373 61.3118C76.4302 61.2616 76.4232 61.2133 76.4164 61.1672C76.1624 61.1627 75.8508 61.1537 75.508 61.1365C74.6317 61.0924 73.494 60.992 72.6004 60.7527C71.6895 60.5088 70.9798 60.0011 70.3968 59.4447C69.9516 59.0198 69.5465 58.5306 69.1873 58.0968C69.0893 57.9784 68.9945 57.8638 68.9033 57.7561C68.45 57.22 68.0705 56.8275 67.6719 56.5973C67.3149 56.3913 66.9258 56.3054 66.3889 56.4484C65.6579 56.643 65.3219 57.1557 64.8724 58.033C64.8423 58.0917 64.8116 58.1524 64.7801 58.2146C64.3745 59.0168 63.8334 60.0875 62.6553 60.6933C62.1477 60.9544 61.5626 60.9975 61.2044 61.0239C61.141 61.0286 61.0847 61.0328 61.0372 61.0376C60.8373 61.0575 60.7423 61.0812 60.6917 61.1037L60.6904 61.1043C60.6796 61.1091 60.6751 61.1111 60.6721 61.1143C60.67 61.1167 60.6685 61.1197 60.6661 61.1247L60.6638 61.1294C60.6673 61.1221 60.667 61.1236 60.6637 61.1361C60.6563 61.164 60.6344 61.2467 60.6089 61.4114C60.5769 61.6195 60.5483 61.8932 60.5247 62.2184C60.4778 62.8669 60.4537 63.6787 60.4538 64.4974C60.4538 65.3161 60.4778 66.1277 60.5248 66.7761C60.5484 67.1011 60.5769 67.3746 60.609 67.5824C60.6342 67.7462 60.6561 67.8286 60.6635 67.8565C60.6653 67.8637 60.6663 67.8674 60.6661 67.8678C60.6753 67.882 60.7088 67.9242 60.8087 67.9791C60.9231 68.0418 61.0777 68.0949 61.2555 68.1347C61.4292 68.1736 61.5983 68.194 61.726 68.2044C61.789 68.2095 61.8396 68.2119 61.8728 68.2132C61.8893 68.2137 61.9014 68.214 61.9084 68.2141L61.9131 68.2142L62.4659 68.2146L62.6473 68.7401ZM78.1137 78.3898C78.1137 77.093 79.1582 76.0418 80.4468 76.0418H99.1115C100.4 76.0418 101.445 77.093 101.445 78.3898V101.087C101.445 102.383 100.4 103.435 99.1115 103.435H80.4468C79.1582 103.435 78.1137 102.383 78.1137 101.087V78.3898Z" fill="white"/>
<defs>
<filter id="filter0_d_396_324" x="11" y="14" width="129" height="129" filterUnits="userSpaceOnUse" color-interpolation-filters="sRGB">
<feFlood flood-opacity="0" result="BackgroundImageFix"/>
<feColorMatrix in="SourceAlpha" type="matrix" values="0 0 0 0 0 0 0 0 0 0 0 0 0 0 0 0 0 0 127 0" result="hardAlpha"/>
<feOffset dy="4"/>
<feGaussianBlur stdDeviation="2"/>
<feComposite in2="hardAlpha" operator="out"/>
<feColorMatrix type="matrix" values="0 0 0 0 0 0 0 0 0 0 0 0 0 0 0 0 0 0 0.25 0"/>
<feBlend mode="normal" in2="BackgroundImageFix" result="effect1_dropShadow_396_324"/>
<feBlend mode="normal" in="SourceGraphic" in2="effect1_dropShadow_396_324" result="shape"/>
</filter>
</defs>
</svg>
