<svg width="16" height="16" viewBox="0 0 16 16" fill="none" xmlns="http://www.w3.org/2000/svg">
<path d="M14.0027 1.91181H9.32563C9.18416 1.51294 8.86763 1.19084 8.46875 1.04938V0H7.53125V1.04938C7.13237 1.19084 6.81584 1.51294 6.67438 1.91181H1.99731L0 7.92409V8C0 9.29234 1.05141 10.3438 2.34375 10.3438C3.63609 10.3438 4.6875 9.28403 4.6875 8V7.92409L2.99784 2.84375H6.67441C6.81587 3.24262 7.13241 3.55916 7.53128 3.70062V9.40625H6.59378V13.2592L3.78128 13.7279V16H12.2188V13.7279L9.40628 13.2592V9.40625H8.46878V3.70062C8.86766 3.55916 9.18419 3.24262 9.32566 2.84375H13.0022L11.3125 7.92409V8C11.3125 9.29234 12.3639 10.3438 13.6562 10.3438C14.9486 10.3438 16 9.29234 16 8V7.92409L14.0027 1.91181ZM2.34375 9.40625C1.73263 9.40625 1.21128 9.01128 1.01784 8.46562H3.66969C3.47622 9.01128 2.95487 9.40625 2.34375 9.40625ZM3.56884 7.53125H1.11866L2.34375 3.84772L3.56884 7.53125ZM7.53125 2.375C7.53125 2.11653 7.74153 1.91181 8 1.91181C8.25847 1.91181 8.46875 2.11653 8.46875 2.375C8.46875 2.63347 8.25847 2.84375 8 2.84375C7.74153 2.84375 7.53125 2.63347 7.53125 2.375ZM7.53125 10.3438H8.46875V13.1875H7.53125V10.3438ZM8.89872 14.125L11.2812 14.5221V15.0625H4.71875V14.5221L7.10144 14.125H8.89872ZM13.6562 3.84772L14.8813 7.53125H12.4311L13.6562 3.84772ZM13.6562 9.40625C13.0451 9.40625 12.5238 9.01128 12.3303 8.46562H14.9822C14.7887 9.01128 14.2674 9.40625 13.6562 9.40625Z" fill="#3B3B3B"/>
</svg>
