<svg width="16" height="21" viewBox="0 0 16 21" fill="none" xmlns="http://www.w3.org/2000/svg">
<path d="M4.3361 3.64645C4.14084 3.84171 4.14084 4.15829 4.3361 4.35355L7.51808 7.53553C7.71334 7.7308 8.02993 7.7308 8.22519 7.53553C8.42045 7.34027 8.42045 7.02369 8.22519 6.82843L5.39676 4L8.22519 1.17157C8.42045 0.976311 8.42045 0.659728 8.22519 0.464466C8.02993 0.269204 7.71334 0.269204 7.51808 0.464466L4.3361 3.64645ZM14.5 15.0741C14.5 15.3502 14.7239 15.5741 15 15.5741C15.2761 15.5741 15.5 15.3502 15.5 15.0741H14.5ZM12.6639 17.3536C12.8592 17.1583 12.8592 16.8417 12.6639 16.6464L9.48192 13.4645C9.28666 13.2692 8.97007 13.2692 8.77481 13.4645C8.57955 13.6597 8.57955 13.9763 8.77481 14.1716L11.6032 17L8.77481 19.8284C8.57955 20.0237 8.57955 20.3403 8.77481 20.5355C8.97007 20.7308 9.28666 20.7308 9.48192 20.5355L12.6639 17.3536ZM2.5 5.92593C2.5 5.64978 2.27614 5.42593 2 5.42593C1.72386 5.42593 1.5 5.64978 1.5 5.92593H2.5ZM4.68966 4.5H14.1034V3.5H4.68966V4.5ZM14.5 4.96296V15.0741H15.5V4.96296H14.5ZM14.1034 4.5C14.2894 4.5 14.5 4.67302 14.5 4.96296H15.5C15.5 4.18924 14.9078 3.5 14.1034 3.5V4.5ZM12.3103 16.5H2.89655V17.5H12.3103V16.5ZM2.5 16.037V5.92593H1.5V16.037H2.5ZM2.89655 16.5C2.71059 16.5 2.5 16.327 2.5 16.037H1.5C1.5 16.8108 2.09221 17.5 2.89655 17.5V16.5Z" fill="#4BADDB"/>
</svg>
