<svg width="14" height="14" viewBox="0 0 14 14" fill="none" xmlns="http://www.w3.org/2000/svg">
<path d="M7.00025 11.5088L10.3983 13.2955C10.4938 13.346 10.6002 13.3725 10.7083 13.3728L7.00025 11.5088ZM7.00025 11.5088L3.60225 13.2955C3.49223 13.3531 3.36829 13.3789 3.24441 13.3699C3.12052 13.3608 3.00163 13.3174 2.90113 13.2444C2.80062 13.1714 2.72251 13.0718 2.67559 12.9568C2.62867 12.8418 2.61481 12.7159 2.63558 12.5935L7.00025 11.5088ZM10.709 12.8728C10.6822 12.8727 10.6557 12.866 10.632 12.8535L10.6309 12.8529L7.23294 11.0663L7.00025 10.9439L6.76756 11.0663L3.37021 12.8526C3.37009 12.8526 3.36996 12.8527 3.36984 12.8528C3.34243 12.8671 3.31158 12.8734 3.28075 12.8712C3.24978 12.8689 3.22006 12.8581 3.19493 12.8398C3.1698 12.8216 3.15027 12.7967 3.13855 12.7679C3.12685 12.7392 3.12337 12.7079 3.1285 12.6774C3.12851 12.6773 3.12853 12.6772 3.12854 12.6771L3.77706 8.89396L3.82147 8.63491L3.63326 8.45144L0.884217 5.77173C0.884172 5.77168 0.884127 5.77164 0.884081 5.77159C0.861918 5.74991 0.846244 5.72246 0.838825 5.69235C0.83139 5.66218 0.832539 5.63053 0.842142 5.60097C0.851745 5.57142 0.869419 5.54514 0.893171 5.5251C0.916872 5.5051 0.945682 5.49211 0.97636 5.48759C0.976423 5.48758 0.976487 5.48757 0.976551 5.48756L4.77547 4.93562L5.03559 4.89783L5.15194 4.66213L6.84068 1.24091C6.85718 1.21664 6.87902 1.19639 6.90458 1.18177C6.93382 1.16505 6.96691 1.15625 7.00058 1.15625C7.03426 1.15625 7.06735 1.16505 7.09658 1.18177C7.12214 1.19639 7.14398 1.21663 7.16047 1.24089L8.84853 4.66206L8.96486 4.89782L9.22503 4.93562L13.0239 5.48756C13.024 5.48757 13.0241 5.48758 13.0241 5.48759C13.0548 5.4921 13.0836 5.50509 13.1073 5.5251C13.1311 5.54514 13.1488 5.57142 13.1584 5.60097C13.168 5.63053 13.1691 5.66218 13.1617 5.69235C13.1542 5.72252 13.1385 5.75002 13.1163 5.77173L10.3672 8.45144L10.179 8.63494L10.2235 8.89405L10.8728 12.678C10.8728 12.678 10.8728 12.678 10.8728 12.678C10.8769 12.7019 10.8757 12.7264 10.8693 12.7498C10.863 12.7732 10.8516 12.795 10.836 12.8135C10.8203 12.8321 10.8008 12.847 10.7788 12.8573C10.757 12.8674 10.7332 12.8727 10.709 12.8728Z" stroke="#3B3B3B"/>
</svg>
