<svg width="18" height="22" viewBox="0 0 18 22" fill="none" xmlns="http://www.w3.org/2000/svg">
<path d="M15.4514 7.44761L16.5514 6.10121C16.6144 6.02965 16.6618 5.94573 16.6906 5.85483C16.7194 5.76392 16.729 5.66801 16.7186 5.57321C16.7106 5.4774 16.683 5.38424 16.6376 5.29948C16.5922 5.21473 16.5299 5.14017 16.4546 5.08041L15.5746 4.33241C15.501 4.26517 15.4146 4.2135 15.3205 4.18052C15.2264 4.14754 15.1267 4.13393 15.0272 4.1405C14.9277 4.14708 14.8306 4.17371 14.7417 4.21879C14.6528 4.26386 14.5739 4.32646 14.5098 4.40281L13.4626 5.70521C12.5082 5.09742 11.4388 4.69299 10.321 4.51721V3.52281H11.3506C11.5443 3.52281 11.7301 3.44586 11.8671 3.30888C12.0041 3.17191 12.081 2.98613 12.081 2.79241V1.61321C12.081 1.4195 12.0041 1.23372 11.8671 1.09674C11.7301 0.959765 11.5443 0.882812 11.3506 0.882812H6.65141C6.4577 0.882812 6.27192 0.959765 6.13494 1.09674C5.99796 1.23372 5.92101 1.4195 5.92101 1.61321V2.79241C5.92101 2.98613 5.99796 3.17191 6.13494 3.30888C6.27192 3.44586 6.4577 3.52281 6.65141 3.52281H7.68101V4.51721C6.49096 4.70526 5.35598 5.14964 4.35461 5.81961L3.21941 4.40281C3.15896 4.32824 3.08424 4.26648 2.99962 4.22115C2.915 4.17582 2.82218 4.14783 2.72661 4.13881C2.63047 4.12883 2.53331 4.13851 2.44103 4.16725C2.34875 4.19599 2.26328 4.24321 2.18981 4.30601L1.30981 5.05401C1.23449 5.11377 1.1722 5.18833 1.1268 5.27308C1.08139 5.35784 1.05383 5.451 1.04581 5.54681C1.03584 5.64093 1.04471 5.73609 1.0719 5.82675C1.0991 5.9174 1.14408 6.00173 1.20421 6.07481L2.40101 7.56201V7.60601C1.42913 8.84523 0.827449 10.334 0.665417 11.9005C0.503385 13.467 0.787603 15.0474 1.48527 16.4593C2.18294 17.8712 3.26562 19.0571 4.60836 19.88C5.9511 20.703 7.49918 21.1295 9.07393 21.1103C10.6487 21.0911 12.1859 20.6271 13.5082 19.7717C14.8306 18.9163 15.8841 17.7045 16.5471 16.276C17.2102 14.8475 17.4559 13.2607 17.2558 11.6986C17.0557 10.1365 16.418 8.66281 15.4162 7.44761H15.4514ZM15.0994 5.10681L15.777 5.66121L14.8442 6.79641C14.6345 6.59144 14.4142 6.39758 14.1842 6.21561L15.0994 5.10681ZM6.80101 1.76281H11.201V2.64281H6.80101V1.76281ZM8.56101 3.52281H9.44101V4.40281C9.29141 4.40281 9.15061 4.40281 9.00101 4.40281C8.85141 4.40281 8.71061 4.40281 8.56101 4.40281V3.52281ZM1.95221 5.66121L2.63861 5.10681L3.65061 6.34761C3.42596 6.53548 3.21152 6.73523 3.00821 6.94601L1.95221 5.66121ZM9.00101 20.2428C7.52161 20.2428 6.07543 19.8041 4.84535 18.9822C3.61527 18.1603 2.65654 16.9921 2.09039 15.6253C1.52425 14.2585 1.37612 12.7545 1.66474 11.3035C1.95336 9.85256 2.66576 8.51975 3.71185 7.47366C4.75795 6.42756 6.09076 5.71516 7.54174 5.42654C8.99271 5.13792 10.4967 5.28605 11.8635 5.85219C13.2303 6.41834 14.3985 7.37707 15.2204 8.60715C16.0423 9.83723 16.481 11.2834 16.481 12.7628C16.4787 14.7459 15.6899 16.6471 14.2876 18.0494C12.8853 19.4517 10.9841 20.2405 9.00101 20.2428Z" fill="#3B3B3B"/>
<path d="M14.9411 12.3228H9.4411V6.82281C9.4411 6.70612 9.39474 6.5942 9.31222 6.51169C9.22971 6.42917 9.11779 6.38281 9.0011 6.38281C7.73925 6.38281 6.50574 6.75699 5.45656 7.45804C4.40737 8.15908 3.58963 9.1555 3.10675 10.3213C2.62386 11.4871 2.49751 12.7699 2.74369 14.0075C2.98986 15.2451 3.5975 16.3819 4.48976 17.2742C5.38201 18.1664 6.51882 18.774 7.75642 19.0202C8.99402 19.2664 10.2768 19.14 11.4426 18.6572C12.6084 18.1743 13.6048 17.3565 14.3059 16.3074C15.0069 15.2582 15.3811 14.0247 15.3811 12.7628C15.3811 12.6461 15.3347 12.5342 15.2522 12.4517C15.1697 12.3692 15.0578 12.3228 14.9411 12.3228ZM9.0011 18.2628C7.58047 18.2629 6.2149 17.7133 5.19042 16.7291C4.16594 15.7449 3.56202 14.4025 3.50515 12.983C3.44828 11.5635 3.94287 10.1771 4.88533 9.11406C5.82779 8.05106 7.14501 7.39397 8.5611 7.28041V12.7628C8.5611 12.8795 8.60745 12.9914 8.68997 13.0739C8.77248 13.1565 8.8844 13.2028 9.0011 13.2028H14.4835C14.3709 14.5802 13.7448 15.8649 12.7292 16.8022C11.7137 17.7394 10.383 18.2608 9.0011 18.2628Z" fill="#3B3B3B"/>
</svg>
