<svg width="15" height="16" viewBox="0 0 15 16" fill="none" xmlns="http://www.w3.org/2000/svg">
<path d="M13.5577 13.5768L13.184 13.9089L13.5577 13.5768ZM2.63503 1.28873L3.00874 0.956548V0.956549L2.63503 1.28873ZM8.55867 11.2549L8.9383 10.9295L8.9383 10.9295L8.55867 11.2549ZM4.26267 6.24285L3.88304 6.56825L3.88304 6.56824L4.26267 6.24285ZM1.9959 3.38333C2.27205 3.38333 2.4959 3.60719 2.4959 3.88333C2.4959 4.15947 2.27205 4.38333 1.9959 4.38333V3.38333ZM1.14077 4.38333C0.864632 4.38333 0.640774 4.15947 0.640774 3.88333C0.640774 3.60719 0.864632 3.38333 1.14077 3.38333V4.38333ZM1.9959 5.09359C2.27205 5.09359 2.4959 5.31745 2.4959 5.59359C2.4959 5.86973 2.27205 6.09359 1.9959 6.09359V5.09359ZM1.14077 6.09359C0.864632 6.09359 0.640774 5.86973 0.640774 5.59359C0.640774 5.31745 0.864632 5.09359 1.14077 5.09359V6.09359ZM1.9959 6.80384C2.27205 6.80384 2.4959 7.0277 2.4959 7.30384C2.4959 7.57999 2.27205 7.80384 1.9959 7.80384V6.80384ZM1.14077 7.80384C0.864632 7.80384 0.640774 7.57999 0.640774 7.30384C0.640774 7.0277 0.864632 6.80384 1.14077 6.80384V7.80384ZM1.9959 8.5141C2.27205 8.5141 2.4959 8.73796 2.4959 9.0141C2.4959 9.29024 2.27205 9.5141 1.9959 9.5141V8.5141ZM1.14077 9.5141C0.864632 9.5141 0.640774 9.29024 0.640774 9.0141C0.640774 8.73796 0.864632 8.5141 1.14077 8.5141V9.5141ZM1.9959 10.2244C2.27205 10.2244 2.4959 10.4482 2.4959 10.7244C2.4959 11.0005 2.27205 11.2244 1.9959 11.2244V10.2244ZM1.14077 11.2244C0.864632 11.2244 0.640774 11.0005 0.640774 10.7244C0.640774 10.4482 0.864632 10.2244 1.14077 10.2244V11.2244ZM1.9959 11.9346C2.27205 11.9346 2.4959 12.1585 2.4959 12.4346C2.4959 12.7108 2.27205 12.9346 1.9959 12.9346V11.9346ZM1.14077 12.9346C0.864632 12.9346 0.640774 12.7108 0.640774 12.4346C0.640774 12.1585 0.864632 11.9346 1.14077 11.9346V12.9346ZM4.20616 14.5724C4.20616 14.8486 3.9823 15.0724 3.70616 15.0724C3.43002 15.0724 3.20616 14.8486 3.20616 14.5724H4.20616ZM3.20616 13.7173C3.20616 13.4412 3.43002 13.2173 3.70616 13.2173C3.9823 13.2173 4.20616 13.4412 4.20616 13.7173H3.20616ZM5.91642 14.5724C5.91642 14.8486 5.69256 15.0724 5.41642 15.0724C5.14027 15.0724 4.91642 14.8486 4.91642 14.5724H5.91642ZM4.91642 13.7173C4.91642 13.4412 5.14027 13.2173 5.41642 13.2173C5.69256 13.2173 5.91642 13.4412 5.91642 13.7173H4.91642ZM7.62667 14.5724C7.62667 14.8486 7.40281 15.0724 7.12667 15.0724C6.85053 15.0724 6.62667 14.8486 6.62667 14.5724H7.62667ZM6.62667 13.7173C6.62667 13.4412 6.85053 13.2173 7.12667 13.2173C7.40281 13.2173 7.62667 13.4412 7.62667 13.7173H6.62667ZM9.33693 14.5724C9.33693 14.8486 9.11307 15.0724 8.83693 15.0724C8.56079 15.0724 8.33693 14.8486 8.33693 14.5724H9.33693ZM8.33693 13.7173C8.33693 13.4412 8.56079 13.2173 8.83693 13.2173C9.11307 13.2173 9.33693 13.4412 9.33693 13.7173H8.33693ZM11.0472 14.5724C11.0472 14.8486 10.8233 15.0724 10.5472 15.0724C10.271 15.0724 10.0472 14.8486 10.0472 14.5724H11.0472ZM10.0472 13.7173C10.0472 13.4412 10.271 13.2173 10.5472 13.2173C10.8233 13.2173 11.0472 13.4412 11.0472 13.7173H10.0472ZM1.64077 1.85685V14.1449H0.640774V1.85685H1.64077ZM1.9959 14.5H12.9186V15.5H1.9959V14.5ZM13.184 13.9089L2.26133 1.62091L3.00874 0.956549L13.9314 13.2446L13.184 13.9089ZM4.20616 6.44872V10.7244H3.20616V6.44872H4.20616ZM4.56129 11.0795H8.40936V12.0795H4.56129V11.0795ZM8.17905 11.5803L3.88304 6.56825L4.6423 5.91745L8.9383 10.9295L8.17905 11.5803ZM3.88304 6.56824C3.99401 6.69771 4.20616 6.61923 4.20616 6.44872H3.20616C3.20616 5.69083 4.14907 5.34202 4.6423 5.91745L3.88304 6.56824ZM4.20616 10.7244C4.20616 10.9205 4.36516 11.0795 4.56129 11.0795V12.0795C3.81287 12.0795 3.20616 11.4728 3.20616 10.7244H4.20616ZM12.9186 14.5C13.225 14.5 13.3876 14.138 13.184 13.9089L13.9314 13.2446C14.7082 14.1185 14.0879 15.5 12.9186 15.5V14.5ZM8.40936 11.0795C8.1502 11.0795 8.01038 11.3835 8.17905 11.5803L8.9383 10.9295C9.32564 11.3814 9.00455 12.0795 8.40936 12.0795V11.0795ZM1.64077 14.1449C1.64077 14.341 1.79977 14.5 1.9959 14.5V15.5C1.24749 15.5 0.640774 14.8933 0.640774 14.1449H1.64077ZM0.640774 1.85685C0.640774 0.610784 2.1809 0.0252284 3.00874 0.956548L2.26133 1.62091C2.04438 1.37685 1.64077 1.5303 1.64077 1.85685H0.640774ZM1.9959 4.38333H1.14077V3.38333H1.9959V4.38333ZM1.9959 6.09359H1.14077V5.09359H1.9959V6.09359ZM1.9959 7.80384H1.14077V6.80384H1.9959V7.80384ZM1.9959 9.5141H1.14077V8.5141H1.9959V9.5141ZM1.9959 11.2244H1.14077V10.2244H1.9959V11.2244ZM1.9959 12.9346H1.14077V11.9346H1.9959V12.9346ZM3.20616 14.5724V13.7173H4.20616V14.5724H3.20616ZM4.91642 14.5724V13.7173H5.91642V14.5724H4.91642ZM6.62667 14.5724V13.7173H7.62667V14.5724H6.62667ZM8.33693 14.5724V13.7173H9.33693V14.5724H8.33693ZM10.0472 14.5724V13.7173H11.0472V14.5724H10.0472Z" fill="#4BADDB"/>
</svg>
