<svg width="150" height="150" viewBox="0 0 150 150" fill="none" xmlns="http://www.w3.org/2000/svg">
<circle cx="75" cy="75" r="75" fill="#08293A" fill-opacity="0.13"/>
<g filter="url(#filter0_d_396_325)">
<circle cx="75.5" cy="75.5" r="59.5" stroke="#3BA8DC" stroke-width="2" shape-rendering="crispEdges"/>
</g>
<path fill-rule="evenodd" clip-rule="evenodd" d="M93.8366 93.8C96.0271 93.8 97.8029 92.0091 97.8029 89.8C97.8029 87.5909 96.0271 85.8 93.8366 85.8C91.646 85.8 89.8702 87.5909 89.8702 89.8C89.8702 92.0091 91.646 93.8 93.8366 93.8ZM97.0096 89.8C97.0096 91.5673 95.589 93 93.8366 93C92.0841 93 90.6635 91.5673 90.6635 89.8C90.6635 88.0327 92.0841 86.6 93.8366 86.6C95.589 86.6 97.0096 88.0327 97.0096 89.8Z" fill="white"/>
<path d="M73.2021 52.7235L84.0497 62.4008L82.9985 63.5992L73.221 54.8765L64.2283 63.1897L63.1563 62.0103L73.2021 52.7235Z" fill="white"/>
<path fill-rule="evenodd" clip-rule="evenodd" d="M73.1796 57.5615L65.6755 64.239V73.4H81.1443V63.8087L73.1796 57.5615ZM69.2452 63.1963L73.2435 59.6385L79.5577 64.5913V71.8H70.8317V69H73.2116V64.6H69.2452V63.1963ZM69.2452 71.8H67.262V64.961L67.6587 64.6081V66.2H71.625V67.4H69.2452V71.8Z" fill="white"/>
<path d="M61.3125 84.2V82.6H81.9375V84.2H61.3125Z" fill="white"/>
<path d="M61.3125 88.2V86.6H81.9375V88.2H61.3125Z" fill="white"/>
<path fill-rule="evenodd" clip-rule="evenodd" d="M97.8029 82.5192V48.2C97.8029 46.4327 96.3823 45 94.6298 45H54.1731C52.4206 45 51 46.4327 51 48.2V99.4C51 101.167 52.4206 102.6 54.1731 102.6H88.6164V104.267C88.6178 104.388 88.6477 104.507 88.7036 104.613C88.7594 104.719 88.8396 104.809 88.937 104.876C89.0344 104.943 89.1462 104.984 89.2625 104.996C89.3789 105.008 89.4963 104.991 89.6046 104.945L93.8365 103.106L98.0685 104.945C98.1766 104.991 98.294 105.008 98.4102 104.996C98.5265 104.984 98.6382 104.943 98.7355 104.876C98.8328 104.809 98.9127 104.719 98.9683 104.613C99.024 104.506 99.0535 104.388 99.0545 104.267V98.3883H99.044C99.044 98.2558 98.9903 97.0824 98.914 96.3014C98.9303 96.2748 98.9448 96.2464 98.9574 96.216C98.9719 96.181 98.9839 96.1433 98.9932 96.1029L99.5772 93.8721C99.8518 93.6518 100.175 93.4521 100.488 93.259L100.491 93.2572C101.266 92.779 101.975 92.3413 101.714 91.7311H101.719L100.923 89.5703C101.022 89.2252 101.17 88.8679 101.314 88.5227C101.673 87.6581 102.001 86.8686 101.443 86.5325L99.5708 85.2685C99.4476 84.9137 99.3618 84.5232 99.2799 84.1501C99.0805 83.2421 98.9035 82.4364 98.2631 82.4953L97.8029 82.5192ZM94.6298 46.6H54.1731C53.2969 46.6 52.5865 47.3164 52.5865 48.2V99.4C52.5865 100.284 53.2968 101 54.1731 101H88.6164V98.3883C88.6164 98.277 88.6585 97.5924 88.7193 97H54.9663V49H93.8366V81.0028C94.2425 81.0412 94.7167 81.4725 95.2073 81.9188L95.2083 81.9196C95.4801 82.1669 95.7577 82.4194 96.0308 82.6112L96.2164 82.6016V48.2C96.2164 47.3164 95.5061 46.6 94.6298 46.6ZM96.2164 84.0722L95.8298 84.0919C95.5345 84.1553 94.8574 83.5517 94.3568 83.1054C94.1328 82.9057 93.9441 82.7375 93.8408 82.6747L93.8366 82.6781L92.25 83.9928C91.9525 84.1443 91.1805 84.0782 90.591 84.0277C90.2917 84.0021 90.0389 83.9804 89.9199 83.9934C89.8747 84.1007 89.8192 84.3452 89.7526 84.6381C89.6007 85.3063 89.3915 86.2265 89.1179 86.3466L87.4971 87.4401L88.1869 89.3079C88.3382 89.5755 87.9933 90.4222 87.737 91.0516C87.6206 91.3373 87.5222 91.5789 87.4971 91.7004L89.1179 92.7939C89.392 92.9182 89.5981 93.8252 89.7495 94.4917C89.8166 94.7873 89.8731 95.0356 89.9199 95.1472C89.9322 95.1472 90.1381 95.1369 90.4126 95.123L90.9255 95.0969L90.9273 95.0968L90.9405 95.0961C91.411 95.0721 91.8702 95.0487 91.8877 95.0487C91.9738 95.0335 92.1009 95.0835 92.25 95.173L93.8366 96.4603V96.4611L93.8408 96.4637L95.3494 95.2106C95.464 95.0763 95.8139 95.046 96.2164 95.0552L97.8029 95.031C97.84 94.9034 97.8826 94.7158 97.9311 94.5025C98.0829 93.8344 98.2921 92.9141 98.5657 92.7939L100.187 91.7004L99.4967 89.8327H99.4925C99.3392 89.563 99.6943 88.6957 99.9531 88.0634C100.066 87.7884 100.16 87.5575 100.187 87.4401C100.101 87.3619 99.8919 87.2305 99.6415 87.0733C99.073 86.7163 98.2924 86.226 98.2674 85.9224L97.8029 84.1434L96.2164 84.0722ZM96.2164 96.5394C96.1534 96.5383 96.0914 96.5385 96.0308 96.5403C95.9375 96.5959 95.7272 96.7813 95.4703 97.0077L95.4691 97.0087C94.8985 97.5115 94.0988 98.2161 93.8408 98.1543C93.5789 98.2114 92.789 97.515 92.2205 97.0137L92.2194 97.0128L92.217 97.0106L92.205 97H90.0156C90.0413 97.4934 90.0392 98.1202 90.0385 98.3324L90.0384 98.3883V101V102.6V103.16C90.2423 103.1 90.7051 102.885 91.249 102.633L91.3202 102.6L93.4399 101H93.8365L95.8103 102.371L97.622 103.16V100.468L97.5652 96.4204L96.2164 96.5394ZM92.25 82.1139V50.6H56.5529V95.4H88.5065L88.1065 93.8721L86.2338 92.6059C85.6756 92.2712 86.0044 91.4804 86.3639 90.6155C86.5072 90.2709 86.6555 89.9143 86.7544 89.5703L85.9588 87.4095C85.6968 86.7975 86.4157 86.3557 87.1994 85.8742L87.2002 85.8737C87.5111 85.6827 87.8326 85.4851 88.1065 85.2685L88.6905 83.0355C88.8312 82.3834 89.6469 82.4615 90.5568 82.5485L90.5578 82.5487C90.9202 82.5833 91.2974 82.6193 91.6529 82.6112L92.25 82.1139Z" fill="white"/>
<defs>
<filter id="filter0_d_396_325" x="11" y="15" width="129" height="129" filterUnits="userSpaceOnUse" color-interpolation-filters="sRGB">
<feFlood flood-opacity="0" result="BackgroundImageFix"/>
<feColorMatrix in="SourceAlpha" type="matrix" values="0 0 0 0 0 0 0 0 0 0 0 0 0 0 0 0 0 0 127 0" result="hardAlpha"/>
<feOffset dy="4"/>
<feGaussianBlur stdDeviation="2"/>
<feComposite in2="hardAlpha" operator="out"/>
<feColorMatrix type="matrix" values="0 0 0 0 0 0 0 0 0 0 0 0 0 0 0 0 0 0 0.25 0"/>
<feBlend mode="normal" in2="BackgroundImageFix" result="effect1_dropShadow_396_325"/>
<feBlend mode="normal" in="SourceGraphic" in2="effect1_dropShadow_396_325" result="shape"/>
</filter>
</defs>
</svg>
