<svg width="119" height="108" viewBox="0 0 119 108" fill="none" xmlns="http://www.w3.org/2000/svg">
<g clip-path="url(#clip0_317_9809)">
<path d="M9.80764 70.3919C8.87969 70.7902 8.04225 71.3728 7.34602 72.1043C6.63575 72.8526 6.08318 73.736 5.72116 74.7021C4.92947 76.803 4.92947 79.1202 5.72116 81.221C6.09053 82.1777 6.64239 83.0534 7.34602 83.7994C8.04225 84.5309 8.87969 85.1135 9.80764 85.5119C10.7864 85.9252 11.8393 86.1338 12.9017 86.1248C14.538 86.193 16.1409 85.6483 17.3968 84.5973C18.5814 83.5542 19.3942 82.154 19.7125 80.6081H12.0649V77.2221H23.6628C23.6859 78.9401 23.4094 80.6489 22.8455 82.2719C22.3484 83.7035 21.5786 85.0252 20.5785 86.1638C19.6364 87.2234 18.4786 88.0694 17.1828 88.6448C15.8541 89.2239 14.4191 89.5188 12.9698 89.5108C11.41 89.5216 9.8632 89.2275 8.4163 88.6448C7.04561 88.0884 5.80132 87.2611 4.75792 86.2124C2.60805 84.0035 1.41888 81.0341 1.44981 77.9519C1.43463 76.3782 1.73229 74.8171 2.32548 73.3594C2.87852 71.9888 3.69877 70.7418 4.73845 69.6913C5.77648 68.6452 7.01389 67.8181 8.37738 67.2589C9.81536 66.668 11.3568 66.3703 12.9114 66.3832C14.0176 66.3761 15.1189 66.5302 16.1806 66.8405C17.166 67.1303 18.1035 67.563 18.9633 68.1248C19.8054 68.6808 20.5652 69.3522 21.2206 70.1194C21.8736 70.9019 22.423 71.7652 22.8552 72.6881H18.7687C18.1097 71.8079 17.2619 71.0865 16.2876 70.5767C15.2302 70.0288 14.0536 69.7513 12.8628 69.7692C11.8123 69.7628 10.7719 69.9748 9.80764 70.3919Z" fill="#1D1D1B"/>
<path d="M45.7307 75.842C45.5025 76.5702 45.1358 77.2475 44.6507 77.8366C44.129 78.4517 43.4908 78.9576 42.7728 79.3253C41.9323 79.7507 41.0232 80.0241 40.0874 80.1328L46.8982 89.0745H42.3155L35.5728 80.2301H31.4572V89.0745H27.7891V66.8226H38.4918C39.6433 66.7977 40.79 66.9789 41.8777 67.3577C42.7617 67.6684 43.5682 68.1662 44.242 68.8172C44.8507 69.4252 45.319 70.1592 45.6139 70.9674C45.9189 71.786 46.0738 72.6528 46.0712 73.5263C46.0822 74.3115 45.9672 75.0933 45.7307 75.842ZM41.3426 71.0647C40.4962 70.4539 39.4659 70.1517 38.4237 70.2085H31.5253V76.815H38.4237C39.4659 76.8718 40.4962 76.5696 41.3426 75.9588C41.6828 75.6453 41.9544 75.2648 42.1401 74.8411C42.3259 74.4174 42.4218 73.9598 42.4218 73.4972C42.4218 73.0345 42.3259 72.577 42.1401 72.1533C41.9544 71.7296 41.6828 71.349 41.3426 71.0355V71.0647Z" fill="#1D1D1B"/>
<path d="M47.7637 89.08L57.4934 66.8281H61.288L71.0177 89.08H67.1258L64.9075 84.0595H53.8156L51.6069 89.08H47.7637ZM55.2361 80.6735H63.3799L59.3226 71.3914L55.2361 80.6735Z" fill="#1D1D1B"/>
<path d="M93.7365 89.08H89.6889L77.3419 72.2962V89.08H73.6543V66.8281H77.7116L90.0489 83.6314V66.8281H93.7365V89.08Z" fill="#1D1D1B"/>
<path d="M111.883 67.7076C113.306 68.2429 114.607 69.0604 115.706 70.1109C116.741 71.1032 117.548 72.3083 118.071 73.6428C119.148 76.412 119.148 79.4843 118.071 82.2536C117.545 83.5898 116.739 84.7977 115.706 85.7952C114.604 86.8393 113.304 87.653 111.883 88.1887C110.228 88.8074 108.472 89.1079 106.706 89.0741H99.1367V66.8222H106.706C108.472 66.7933 110.227 67.0936 111.883 67.7076ZM114.607 74.8201C114.228 73.8914 113.654 73.0552 112.924 72.3682C112.154 71.6609 111.247 71.1209 110.258 70.7822C109.129 70.3878 107.941 70.1935 106.745 70.2082H102.853V85.6882H106.745C107.94 85.7057 109.129 85.5147 110.258 85.1238C111.247 84.7817 112.155 84.2384 112.924 83.5282C113.652 82.843 114.226 82.0104 114.607 81.086C115.385 79.0699 115.385 76.8362 114.607 74.8201Z" fill="#1D1D1B"/>
<path d="M1.36133 97.9297H4.22186C6.4597 97.9297 7.96781 98.6789 7.96781 100.849C7.96781 103.018 6.45971 103.933 4.28025 103.933H2.63592V107.951H1.36133V97.9297ZM4.11484 102.921C5.86619 102.921 6.69322 102.289 6.69322 100.868C6.69322 99.4475 5.80781 98.9221 4.05646 98.9221H2.63592V102.882L4.11484 102.921Z" fill="#1D1D1B"/>
<path d="M9.96289 97.9297H13.1251C15.1586 97.9297 16.618 98.6594 16.618 100.742C16.618 102.824 15.1586 103.66 13.1251 103.66H11.2375V107.951H9.96289V97.9297ZM12.8818 102.668C14.4386 102.668 15.2948 102.036 15.2948 100.722C15.2948 99.4086 14.4386 98.9416 12.8818 98.9416H11.2375V102.649L12.8818 102.668ZM12.8137 103.349L13.7867 102.688L16.8807 107.951H15.4407L12.8137 103.349Z" fill="#1D1D1B"/>
<path d="M17.9902 102.879C17.9902 99.6881 19.7513 97.7422 22.2616 97.7422C24.7719 97.7422 26.5232 99.6881 26.5232 102.879C26.5232 106.071 24.7621 108.095 22.2616 108.095C19.761 108.095 17.9902 106.081 17.9902 102.879ZM25.2097 102.879C25.2097 100.398 24.0421 98.8611 22.2908 98.8611C20.5394 98.8611 19.3719 100.398 19.3719 102.879C19.3719 105.361 20.5394 106.976 22.2908 106.976C24.0421 106.976 25.2486 105.37 25.2486 102.879H25.2097Z" fill="#1D1D1B"/>
<path d="M28.6934 97.9297H31.5442C33.782 97.9297 35.2901 98.6789 35.2901 100.849C35.2901 103.018 33.7917 103.933 31.6025 103.933H29.968V107.951H28.6934V97.9297ZM31.4469 102.921C33.1885 102.921 34.0253 102.289 34.0253 100.868C34.0253 99.4475 33.1399 98.9221 31.3788 98.9221H29.968V102.882L31.4469 102.921Z" fill="#1D1D1B"/>
<path d="M37.2928 97.9297H43.0528V99.0097H38.5674V102.113H42.3134V103.193H38.5285V106.823H43.1696V107.951H37.2539L37.2928 97.9297Z" fill="#1D1D1B"/>
<path d="M45.3008 97.9297H48.4338C50.4673 97.9297 51.9267 98.6594 51.9267 100.742C51.9267 102.824 50.4673 103.66 48.4338 103.66H46.5754V107.951H45.3008V97.9297ZM48.2197 102.668C49.7667 102.668 50.6229 102.036 50.6229 100.722C50.6229 99.4086 49.7667 98.9416 48.2197 98.9416H46.5462V102.649L48.2197 102.668ZM48.1516 103.349L49.1246 102.688L52.17 107.912H50.7786L48.1516 103.349Z" fill="#1D1D1B"/>
<path d="M55.8092 99.0097H52.793V97.9297H60.1V99.0097H57.0838V107.951H55.8092V99.0097Z" fill="#1D1D1B"/>
<path d="M63.2819 104.057L60.2754 97.9375H61.6375L62.9219 100.759C63.2429 101.489 63.5446 102.189 63.8948 102.929H63.9532C64.2938 102.189 64.644 101.489 64.9262 100.759L66.2203 97.9375H67.5338L64.5565 104.057V107.949H63.2819V104.057Z" fill="#1D1D1B"/>
<path d="M71.1719 102.929C71.1719 99.7083 73.1178 97.7429 75.7546 97.7429C76.3006 97.7325 76.8426 97.8372 77.3455 98.0501C77.8484 98.263 78.3009 98.5793 78.6735 98.9786L77.9729 99.8056C77.7084 99.4975 77.3798 99.2509 77.0101 99.0828C76.6404 98.9148 76.2385 98.8294 75.8324 98.8326C73.8184 98.8326 72.5243 100.38 72.5243 102.87C72.5243 105.361 73.7113 106.947 75.8421 106.947C76.4925 106.973 77.1308 106.766 77.6421 106.363V103.766H75.5211V102.715H78.8V106.976C78.3884 107.364 77.9038 107.667 77.3742 107.865C76.8447 108.064 76.2809 108.156 75.7157 108.134C73.0497 108.095 71.1719 106.169 71.1719 102.929Z" fill="#1D1D1B"/>
<path d="M81.127 97.9297H84.2502C86.2934 97.9297 87.7529 98.6594 87.7529 100.742C87.7529 102.824 86.2934 103.66 84.2502 103.66H82.4015V107.951H81.127V97.9297ZM84.0459 102.668C85.5929 102.668 86.4491 102.036 86.4491 100.722C86.4491 99.4086 85.5929 98.9416 84.0459 98.9416H82.4015V102.649L84.0459 102.668ZM83.9778 103.349L84.9507 102.688L88.0448 107.951H86.6048L83.9778 103.349Z" fill="#1D1D1B"/>
<path d="M89.1914 102.879C89.1914 99.6881 90.9525 97.7422 93.4628 97.7422C95.973 97.7422 97.7244 99.6881 97.7244 102.879C97.7244 106.071 95.9633 108.095 93.4628 108.095C90.9622 108.095 89.1914 106.081 89.1914 102.879ZM96.4109 102.879C96.4109 100.398 95.2433 98.8611 93.492 98.8611C91.7406 98.8611 90.573 100.398 90.573 102.879C90.573 105.361 91.7406 106.976 93.492 106.976C95.2433 106.976 96.4109 105.37 96.4109 102.879Z" fill="#1D1D1B"/>
<path d="M99.8164 103.797V97.9589H101.091V103.855C101.091 106.258 102.064 107.008 103.407 107.008C104.749 107.008 105.771 106.258 105.771 103.855V97.9297H106.997V103.768C106.997 106.969 105.45 108.068 103.407 108.068C101.363 108.068 99.8164 106.978 99.8164 103.797Z" fill="#1D1D1B"/>
<path d="M109.664 97.9297H112.515C114.753 97.9297 116.261 98.6789 116.261 100.849C116.261 103.018 114.762 103.933 112.573 103.933H110.929V107.951H109.664V97.9297ZM112.418 102.921C114.159 102.921 114.996 102.289 114.996 100.868C114.996 99.4475 114.111 98.9221 112.349 98.9221H110.929V102.882L112.418 102.921Z" fill="#1D1D1B"/>
<path d="M116.669 92.8125H0V94.1844H116.669V92.8125Z" fill="#007DB4"/>
<path d="M58.2321 0L58.524 13.4562L58.3586 13.3395L33.1878 32.0692V51.9859L58.2613 42.6162L58.524 42.7232V61.1416H24.2656V29.16L58.2321 0Z" fill="#30BCEC"/>
<path d="M92.4032 26.173V35.5913L85.4465 37.1384L92.4032 41.1276V61.1416H58.2324L58.2616 42.6162L82.5081 51.9859V46.4789L58.2324 36.0973L58.2421 21.5319L83.2476 35.8735L90.3113 34.2097L58.3589 13.3395L58.2324 0L92.4032 26.173Z" fill="#073B52"/>
<path d="M58.524 34.0054V36.1849L82.5078 46.44V51.947L58.524 42.7622V45.0097L84.0451 54.4378V45.3405L58.524 34.0054ZM58.524 34.0054V36.1849L82.5078 46.44V51.947L58.524 42.7622V45.0097L84.0451 54.4378V45.3405L58.524 34.0054ZM92.4029 26.2216L58.2321 0L24.2656 29.1405V61.1222H92.3737V41.1276L85.417 37.1286L92.3737 35.5913L92.4029 26.2216ZM83.2473 35.9513L58.524 21.6973L58.2418 21.5319L38.9478 33.8984V44.1341L58.0764 36.0292L58.524 36.2238L82.5078 46.4789V51.9859L58.524 42.7622L58.2613 42.6551L33.1878 52.0249V32.0595L58.3586 13.3297L58.524 13.4465L90.311 34.2L83.2473 35.9513ZM90.8656 32.9643L58.524 11.1795L58.3294 11.0432L31.6116 31.4757V54.3405L58.2224 44.8638L58.524 44.9805L84.0451 54.4378V45.3405L58.524 34.0054L58.2224 33.8692L40.8256 41.254V34.5113L58.2224 23.6919L58.524 23.8573L90.8656 42.0324V59.7697H25.6083V29.8216L58.3294 2.31567L58.524 2.46162L90.8656 26.7859V32.9643ZM58.524 34.0054V36.1849L82.5078 46.44V51.947L58.524 42.7622V45.0097L84.0451 54.4378V45.3405L58.524 34.0054ZM58.524 34.0054V36.1849L82.5078 46.44V51.947L58.524 42.7622V45.0097L84.0451 54.4378V45.3405L58.524 34.0054Z" fill="url(#paint0_linear_317_9809)"/>
<path d="M20.1503 59.7656H0.00976562V61.1375H20.1503V59.7656Z" fill="#007DB4"/>
<path d="M92.4029 59.7656H24.2559V61.1375H92.4029V59.7656Z" fill="#007DB4"/>
<path d="M116.668 59.7656H96.5273V61.1375H116.668V59.7656Z" fill="#007DB4"/>
<path d="M58.2229 23.6875L40.8262 34.5459V41.2886L58.2229 33.9037V23.6875Z" fill="#2EBDEE"/>
</g>
<defs>
<linearGradient id="paint0_linear_317_9809" x1="45.6808" y1="71.0367" x2="65.004" y2="31.5146" gradientUnits="userSpaceOnUse">
<stop stop-color="#098FCF"/>
<stop offset="0.58" stop-color="#007BBF"/>
<stop offset="0.81" stop-color="#006AA4"/>
<stop offset="1" stop-color="#025888"/>
</linearGradient>
<clipPath id="clip0_317_9809">
<rect width="118.703" height="108" fill="white"/>
</clipPath>
</defs>
</svg>
